<mxfile host="app.diagrams.net" modified="2023-09-25T23:59:07.686Z" agent="Mozilla/5.0 (Windows NT 10.0; Win64; x64) AppleWebKit/537.36 (KHTML, like Gecko) Chrome/117.0.0.0 Safari/537.36" etag="KpCf-5nFGb7aOITi--vc" version="21.8.2" type="device">
  <diagram id="ICTnfD28nK9RqRXXPT80" name="Página-1">
    <mxGraphModel dx="880" dy="478" grid="1" gridSize="10" guides="1" tooltips="1" connect="1" arrows="1" fold="1" page="1" pageScale="1" pageWidth="827" pageHeight="1169" math="0" shadow="0">
      <root>
        <mxCell id="0" />
        <mxCell id="1" parent="0" />
        <mxCell id="2WYHhM_tyoqI7TmxD7io-1" value="«interface»&lt;br&gt;&lt;b&gt;IPHONE&lt;/b&gt;" style="html=1;whiteSpace=wrap;" parent="1" vertex="1">
          <mxGeometry x="290" y="535" width="110" height="50" as="geometry" />
        </mxCell>
        <mxCell id="2WYHhM_tyoqI7TmxD7io-2" value="&lt;br&gt;Reprodutor Musical&amp;nbsp;" style="swimlane;fontStyle=1;align=center;verticalAlign=top;childLayout=stackLayout;horizontal=1;startSize=40;horizontalStack=0;resizeParent=1;resizeParentMax=0;resizeLast=0;collapsible=1;marginBottom=0;whiteSpace=wrap;html=1;" parent="1" vertex="1">
          <mxGeometry x="60" y="110" width="210" height="98" as="geometry" />
        </mxCell>
        <mxCell id="2WYHhM_tyoqI7TmxD7io-4" value="" style="line;strokeWidth=1;fillColor=none;align=left;verticalAlign=middle;spacingTop=-1;spacingLeft=3;spacingRight=3;rotatable=0;labelPosition=right;points=[];portConstraint=eastwest;strokeColor=inherit;" parent="2WYHhM_tyoqI7TmxD7io-2" vertex="1">
          <mxGeometry y="40" width="210" height="8" as="geometry" />
        </mxCell>
        <mxCell id="2WYHhM_tyoqI7TmxD7io-5" value="+ tocar&lt;br&gt;+pausar&lt;br&gt;+selecionar" style="text;strokeColor=none;fillColor=none;align=left;verticalAlign=top;spacingLeft=4;spacingRight=4;overflow=hidden;rotatable=0;points=[[0,0.5],[1,0.5]];portConstraint=eastwest;whiteSpace=wrap;html=1;" parent="2WYHhM_tyoqI7TmxD7io-2" vertex="1">
          <mxGeometry y="48" width="210" height="50" as="geometry" />
        </mxCell>
        <mxCell id="2WYHhM_tyoqI7TmxD7io-6" value="&lt;br&gt;Telefone" style="swimlane;fontStyle=1;align=center;verticalAlign=top;childLayout=stackLayout;horizontal=1;startSize=40;horizontalStack=0;resizeParent=1;resizeParentMax=0;resizeLast=0;collapsible=1;marginBottom=0;whiteSpace=wrap;html=1;" parent="1" vertex="1">
          <mxGeometry x="350" y="120" width="170" height="112" as="geometry" />
        </mxCell>
        <mxCell id="2WYHhM_tyoqI7TmxD7io-8" value="" style="line;strokeWidth=1;fillColor=none;align=left;verticalAlign=middle;spacingTop=-1;spacingLeft=3;spacingRight=3;rotatable=0;labelPosition=right;points=[];portConstraint=eastwest;strokeColor=inherit;" parent="2WYHhM_tyoqI7TmxD7io-6" vertex="1">
          <mxGeometry y="40" width="170" height="16" as="geometry" />
        </mxCell>
        <mxCell id="2WYHhM_tyoqI7TmxD7io-9" value="+ ligar&lt;br&gt;+atender&lt;br&gt;+iniciar_correio_voz" style="text;strokeColor=none;fillColor=none;align=left;verticalAlign=top;spacingLeft=4;spacingRight=4;overflow=hidden;rotatable=0;points=[[0,0.5],[1,0.5]];portConstraint=eastwest;whiteSpace=wrap;html=1;" parent="2WYHhM_tyoqI7TmxD7io-6" vertex="1">
          <mxGeometry y="56" width="170" height="56" as="geometry" />
        </mxCell>
        <mxCell id="2WYHhM_tyoqI7TmxD7io-10" value="Navegador" style="swimlane;fontStyle=1;align=center;verticalAlign=top;childLayout=stackLayout;horizontal=1;startSize=40;horizontalStack=0;resizeParent=1;resizeParentMax=0;resizeLast=0;collapsible=1;marginBottom=0;whiteSpace=wrap;html=1;" parent="1" vertex="1">
          <mxGeometry x="600" y="120" width="170" height="108" as="geometry" />
        </mxCell>
        <mxCell id="2WYHhM_tyoqI7TmxD7io-12" value="" style="line;strokeWidth=1;fillColor=none;align=left;verticalAlign=middle;spacingTop=-1;spacingLeft=3;spacingRight=3;rotatable=0;labelPosition=right;points=[];portConstraint=eastwest;strokeColor=inherit;" parent="2WYHhM_tyoqI7TmxD7io-10" vertex="1">
          <mxGeometry y="40" width="170" height="8" as="geometry" />
        </mxCell>
        <mxCell id="2WYHhM_tyoqI7TmxD7io-13" value="+ exibir_pagina&lt;br&gt;+adicionar_novapagina&lt;br&gt;+atualizar_pagina" style="text;strokeColor=none;fillColor=none;align=left;verticalAlign=top;spacingLeft=4;spacingRight=4;overflow=hidden;rotatable=0;points=[[0,0.5],[1,0.5]];portConstraint=eastwest;whiteSpace=wrap;html=1;" parent="2WYHhM_tyoqI7TmxD7io-10" vertex="1">
          <mxGeometry y="48" width="170" height="60" as="geometry" />
        </mxCell>
        <mxCell id="Gzu_AvqEUc0ybm6jBgMW-2" value="" style="endArrow=open;endFill=1;endSize=12;html=1;rounded=0;exitX=1;exitY=0;exitDx=0;exitDy=0;" parent="1" source="2WYHhM_tyoqI7TmxD7io-1" target="2WYHhM_tyoqI7TmxD7io-9" edge="1">
          <mxGeometry width="160" relative="1" as="geometry">
            <mxPoint x="370" y="250" as="sourcePoint" />
            <mxPoint x="530" y="250" as="targetPoint" />
            <Array as="points" />
          </mxGeometry>
        </mxCell>
        <mxCell id="Gzu_AvqEUc0ybm6jBgMW-3" value="" style="endArrow=open;endFill=1;endSize=12;html=1;rounded=0;exitX=1;exitY=0.5;exitDx=0;exitDy=0;" parent="1" source="2WYHhM_tyoqI7TmxD7io-1" target="2WYHhM_tyoqI7TmxD7io-13" edge="1">
          <mxGeometry width="160" relative="1" as="geometry">
            <mxPoint x="370" y="250" as="sourcePoint" />
            <mxPoint x="420" y="70" as="targetPoint" />
          </mxGeometry>
        </mxCell>
        <mxCell id="Gzu_AvqEUc0ybm6jBgMW-4" value="" style="endArrow=open;endFill=1;endSize=12;html=1;rounded=0;exitX=0.25;exitY=0;exitDx=0;exitDy=0;entryX=0.667;entryY=1;entryDx=0;entryDy=0;entryPerimeter=0;" parent="1" source="2WYHhM_tyoqI7TmxD7io-1" target="2WYHhM_tyoqI7TmxD7io-5" edge="1">
          <mxGeometry width="160" relative="1" as="geometry">
            <mxPoint x="370" y="320" as="sourcePoint" />
            <mxPoint x="530" y="320" as="targetPoint" />
          </mxGeometry>
        </mxCell>
        <mxCell id="YMHaLTaX3DSqglhXJ5hN-1" value="IphoneClass" style="swimlane;fontStyle=1;align=center;verticalAlign=top;childLayout=stackLayout;horizontal=1;startSize=30;horizontalStack=0;resizeParent=1;resizeParentMax=0;resizeLast=0;collapsible=1;marginBottom=0;whiteSpace=wrap;html=1;" vertex="1" parent="1">
          <mxGeometry x="800" y="130" width="160" height="100" as="geometry" />
        </mxCell>
        <mxCell id="YMHaLTaX3DSqglhXJ5hN-3" value="" style="line;strokeWidth=1;fillColor=none;align=left;verticalAlign=middle;spacingTop=-1;spacingLeft=3;spacingRight=3;rotatable=0;labelPosition=right;points=[];portConstraint=eastwest;strokeColor=inherit;" vertex="1" parent="YMHaLTaX3DSqglhXJ5hN-1">
          <mxGeometry y="30" width="160" height="8" as="geometry" />
        </mxCell>
        <mxCell id="YMHaLTaX3DSqglhXJ5hN-4" value="+telefone&lt;br&gt;+reprodutor&lt;br&gt;+navegador" style="text;strokeColor=none;fillColor=none;align=left;verticalAlign=top;spacingLeft=4;spacingRight=4;overflow=hidden;rotatable=0;points=[[0,0.5],[1,0.5]];portConstraint=eastwest;whiteSpace=wrap;html=1;" vertex="1" parent="YMHaLTaX3DSqglhXJ5hN-1">
          <mxGeometry y="38" width="160" height="62" as="geometry" />
        </mxCell>
        <mxCell id="YMHaLTaX3DSqglhXJ5hN-5" value="" style="endArrow=open;endFill=1;endSize=12;html=1;rounded=0;exitX=1;exitY=0.75;exitDx=0;exitDy=0;entryX=0.431;entryY=1.097;entryDx=0;entryDy=0;entryPerimeter=0;" edge="1" parent="1" source="2WYHhM_tyoqI7TmxD7io-1" target="YMHaLTaX3DSqglhXJ5hN-4">
          <mxGeometry width="160" relative="1" as="geometry">
            <mxPoint x="420" y="350" as="sourcePoint" />
            <mxPoint x="580" y="350" as="targetPoint" />
          </mxGeometry>
        </mxCell>
      </root>
    </mxGraphModel>
  </diagram>
</mxfile>
